<!-- Generated by IcoMoon.io -->
<svg version="1.1" xmlns="http://www.w3.org/2000/svg" width="1024" height="1024" viewBox="0 0 1024 1024">
<title></title>
<g id="icomoon-ignore">
</g>
<path d="M659.115 45.101c20.589-20.583 49.028-33.313 80.441-33.313s59.852 12.73 80.441 33.313l147.114 147.114c20.583 20.589 33.313 49.028 33.313 80.441s-12.73 59.852-33.313 80.441l-545.337 545.337h545.337c31.419 0 56.889 25.47 56.889 56.889s-25.47 56.889-56.889 56.889v0h-910.222c-31.419 0-56.889-25.47-56.889-56.889v0-227.556c0.003-15.708 6.373-29.928 16.668-40.22l642.446-642.446zM512 353.097l-398.222 398.222v147.115h147.115l398.222-398.222-147.115-147.115zM739.556 419.771l-147.115-147.115 147.115-147.115 147.115 147.115-147.115 147.115z"></path>
</svg>
