<!-- Generated by IcoMoon.io -->
<svg version="1.1" xmlns="http://www.w3.org/2000/svg" width="1024" height="1024" viewBox="0 0 1024 1024">
<title></title>
<g id="icomoon-ignore">
</g>
<path d="M914.285 0.001h-804.57c-61.732 0-109.714 50.322-109.714 109.714v804.57c0 61.732 47.982 109.714 109.714 109.714h313.168v-347.457h-144.003v-164.542h143.945v-123.465c0-141.663 84.612-221.651 212.582-221.651 64.015 0 128.029 11.41 128.029 11.41v139.439h-70.861c-70.861 0-93.739 43.418-93.739 89.117v105.15h157.754l-25.161 164.6h-132.593v347.399h315.45c59.45 0 109.714-47.982 109.714-109.714v-804.57c0-59.45-50.322-109.714-109.714-109.714z"></path>
</svg>
