<!-- Generated by IcoMoon.io -->
<svg version="1.1" xmlns="http://www.w3.org/2000/svg" width="1024" height="1024" viewBox="0 0 1024 1024">
<title></title>
<g id="icomoon-ignore">
</g>
<path d="M513.111 248.028c-145.161 0.034-262.828 117.7-262.861 262.858v0.003c0 146.294 116.567 262.861 262.861 262.861 145.161-0.034 262.828-117.7 262.861-262.858v-0.003c0-143.953-118.849-262.861-262.861-262.861zM513.111 682.346c-0.069 0-0.152 0-0.235 0-94.564 0-171.223-76.659-171.223-171.223 0-0.083 0-0.165 0-0.248v0.013c0-93.745 75.488-169.116 171.457-169.116 93.745 0 169.116 75.37 169.116 169.116 0 95.969-75.37 171.457-169.116 171.457zM846.836 238.899c0 0.069 0 0.152 0 0.235 0 33.935-27.509 61.443-61.443 61.443-0.103 0-0.206 0-0.309-0.001h0.016c-0.069 0-0.152 0-0.235 0-33.935 0-61.443-27.509-61.443-61.443 0-0.083 0-0.165 0-0.248v0.013c0-0.087-0.001-0.19-0.001-0.293 0-33.935 27.509-61.443 61.443-61.443 0.083 0 0.165 0 0.248 0h-0.013c0.087 0 0.19-0.001 0.293-0.001 33.935 0 61.443 27.509 61.443 61.443 0 0.103 0 0.206-0.001 0.309v-0.016zM1020.574 300.576c-4.565-82.276-22.822-155.422-82.276-214.876-59.454-59.337-132.6-77.711-214.876-82.276-84.617-4.565-338.29-4.565-422.906 0-82.276 4.565-153.141 22.822-214.876 82.276-59.395 59.454-77.711 132.6-82.217 214.876-4.565 84.617-4.565 338.349 0 422.906 4.565 82.276 22.822 153.141 82.276 214.876 61.678 59.395 132.543 77.711 214.819 82.217 84.617 4.565 338.29 4.565 422.906 0 82.276-4.565 155.422-22.822 214.876-82.276 59.395-61.736 77.711-132.6 82.276-214.876 4.565-84.558 4.565-338.29 0-422.906zM910.854 812.606c-16.034 45.703-52.607 79.993-95.969 98.309-68.642 27.445-228.629 20.598-301.775 20.598-75.488 0-235.417 6.847-301.717-20.598-45.188-18.003-80.306-53.122-97.897-97.141l-0.413-1.169c-27.445-66.301-20.598-226.288-20.598-301.717 0-73.147-6.847-233.135 20.598-301.717 18.81-44.043 53.707-78.179 97.122-95.549l1.188-0.419c66.301-27.504 226.288-20.598 301.717-20.598 73.147 0 233.135-6.906 301.717 20.54 43.42 16.034 77.711 52.607 95.969 95.969 27.504 68.642 20.598 228.629 20.598 301.775 0 75.488 6.906 235.417-20.54 301.717z"></path>
</svg>
