<!-- Generated by IcoMoon.io -->
<svg version="1.1" xmlns="http://www.w3.org/2000/svg" width="1024" height="1024" viewBox="0 0 1024 1024">
<title></title>
<g id="icomoon-ignore">
</g>
<path d="M262.157 301.138c44.324-43.984 105.377-71.165 172.778-71.165s128.454 27.181 172.793 71.181l-0.015-0.015c44.656 44.653 72.277 106.342 72.277 174.482 0 53.313-16.908 102.677-45.655 143.022l0.512-0.756-1.734 1.672c-16.912 25.399-50.799 30.479-76.198 13.567-23.727-18.647-30.479-52.533-11.832-76.198l1.672-1.734c15.833-21.984 25.323-49.458 25.323-79.148 0-37.963-15.514-72.302-40.548-97.023l-0.014-0.014c-52.533-54.206-138.891-54.206-193.097 0l-189.814 189.752c-54.206 52.471-54.206 138.891 0 193.097 47.453 47.391 121.979 52.533 176.184 15.24l1.672-3.408c25.399-16.912 59.286-11.832 76.198 13.567 6.213 8.905 9.927 19.954 9.927 31.872 0 17.966-8.441 33.96-21.574 44.233l-0.123 0.093-3.408 1.734c-39.343 28.232-88.467 45.146-141.542 45.146-67.842 0-129.229-27.636-173.518-72.265l-0.015-0.015c-44.705-43.992-72.406-105.15-72.406-172.778s27.7-128.785 72.374-172.746l0.032-0.032 189.69-191.424zM761.905 721.156c-43.996 44.724-105.165 72.438-172.809 72.438s-128.814-27.713-172.777-72.405l-0.032-0.033c-44.607-44.298-72.218-105.661-72.218-173.472 0-53.075 16.914-102.2 45.647-142.277l-0.501 0.735 1.672-1.734c16.974-25.399 50.799-30.479 76.198-13.505 23.788 16.912 30.541 50.799 11.894 76.198l-1.672 1.672c-15.799 21.989-25.266 49.452-25.266 79.126 0 37.958 15.49 72.3 40.494 97.046l0.012 0.012c52.533 54.206 138.891 54.206 193.097 0l189.752-189.69c54.206-54.206 54.206-140.625 0-193.159-24.758-25.015-59.1-40.506-97.058-40.506-29.675 0-57.139 9.467-79.536 25.544l0.408-0.279-1.672 1.734c-8.896 6.681-20.124 10.698-32.291 10.698-18.051 0-34.036-8.843-43.86-22.434l-0.109-0.159c-6.2-8.899-9.906-19.936-9.906-31.84 0-17.984 8.458-33.993 21.614-44.264l0.124-0.093 3.408-1.672c39.35-28.248 88.488-45.172 141.578-45.172 67.824 0 129.197 27.621 173.483 72.23l0.015 0.015c44.705 43.992 72.406 105.15 72.406 172.778s-27.7 128.785-72.374 172.746l-189.784 189.784z"></path>
</svg>
