<!-- Generated by IcoMoon.io -->
<svg version="1.1" xmlns="http://www.w3.org/2000/svg" width="1024" height="1024" viewBox="0 0 1024 1024">
<title></title>
<g id="icomoon-ignore">
</g>
<path d="M950.857 0h-880.055c-38.737 0-70.802 34.289-70.802 75.483v875.373c0 41.135 32.007 73.143 70.802 73.143h880.055c38.854 0 73.143-32.007 73.143-73.143v-875.373c0-41.194-34.289-75.483-73.143-75.483zM308.546 877.713h-150.85v-486.839h150.85v486.839zM233.121 322.295c-50.264 0-89.117-38.854-89.117-86.894 0-47.982 38.854-89.117 89.117-89.117 47.982 0 86.894 41.135 86.894 89.117s-38.854 86.894-86.894 86.894zM877.714 877.713h-153.133v-237.743c0-54.827 0-127.971-77.706-127.971-79.989 0-91.458 61.732-91.458 125.688v240.025h-150.85v-486.839h144.003v66.297h2.34c20.48-38.912 70.802-80.048 143.945-80.048 153.133 0 182.857 102.868 182.857 233.179v267.41z"></path>
</svg>
