<!-- Generated by IcoMoon.io -->
<svg version="1.1" xmlns="http://www.w3.org/2000/svg" width="1024" height="1024" viewBox="0 0 1024 1024">
<title></title>
<g id="icomoon-ignore">
</g>
<path d="M193.073 64c0.287-35.23 28.769-63.712 63.972-64h512.025c33.996 0 64 30.003 64 64-0.287 35.23-28.769 63.712-63.972 64h-60.033l22.016 297.983c74.623 40.601 131.238 106.352 159.12 185.637l0.726 2.368 2.048 6.041c6.041 19.968 2.048 41.983-10.035 57.958-10.433 15.775-28.096 26.038-48.156 26.038-0.638 0-1.275-0.010-1.908-0.031l0.092 0.002h-639.996c-22.016 0-39.935-7.987-52.019-26.009-7.942-10.783-12.712-24.329-12.712-38.988 0-6.765 1.015-13.292 2.902-19.438l-0.124 0.469 2.048-6.041c28.632-81.668 85.285-147.422 158.176-187.122l1.772-0.883 22.016-297.983h-57.958c-0.245 0.003-0.535 0.005-0.825 0.005-34.894 0-63.18-28.286-63.18-63.18 0-0.29 0.002-0.58 0.005-0.868v0.044zM577.071 767.996v191.999c-0.287 35.23-28.769 63.712-63.972 64h-0.027c-0.245 0.003-0.535 0.005-0.825 0.005-34.894 0-63.18-28.286-63.18-63.18 0-0.29 0.002-0.58 0.005-0.868v0.044-191.999h128z"></path>
</svg>
