<!-- Generated by IcoMoon.io -->
<svg version="1.1" xmlns="http://www.w3.org/2000/svg" width="1024" height="1024" viewBox="0 0 1024 1024">
<title></title>
<g id="icomoon-ignore">
</g>
<path d="M917.593 303.112v27.976c0 277.887-209.936 595.695-595.752 595.695-119.98 0-229.895-33.947-321.841-93.937 15.978 1.99 32.014 3.98 49.982 3.98 98.482-0.143 189.030-33.996 260.751-90.634l-0.89 0.678c-91.946-1.99-169.905-61.98-195.891-145.909 13.988 1.99 25.986 3.98 39.974 3.98 17.969 0 37.984-3.98 54.019-7.961-96.564-20.279-168.028-104.741-168.028-205.896 0-0.020 0-0.042 0-0.062v0.003-2.047c27.976 16.035 61.98 23.996 95.984 25.986-56.894-37.401-93.938-100.943-93.938-173.137 0-0.223 0-0.446 0.001-0.669v0.035c0-39.974 10.008-75.968 27.976-105.935 105.112 126.467 258.868 209.373 432.168 219.805l1.692 0.082c-3.796-14.396-5.993-30.93-6.027-47.971v-0.021c0-0.034 0-0.074 0-0.114 0-115.882 93.94-209.822 209.822-209.822 0.020 0 0.040 0 0.060 0h-0.003c59.99 0 113.952 23.996 153.926 65.96 49.853-11.072 93.939-29.016 133.919-53.088l-1.998 1.116c-15.742 49.595-48.378 90.018-91.006 115.424l-0.941 0.519c44.362-4.659 84.976-15.985 122.447-33.018l-2.467 1.004c-28.853 42.086-63.29 77.806-102.756 107.138l-1.189 0.844z"></path>
</svg>
