<!-- Generated by IcoMoon.io -->
<svg version="1.1" xmlns="http://www.w3.org/2000/svg" width="1024" height="1024" viewBox="0 0 1024 1024">
<title></title>
<g id="icomoon-ignore">
</g>
<path d="M868.585 150.851c-90.786-93.104-217.454-150.851-357.61-150.851-0.462 0-0.926 0.001-1.388 0.002h0.072c-278.819 0-507.376 228.556-507.376 507.435 0 91.399 25.162 178.292 68.579 253.718l-70.861 262.845 267.41-68.579c75.483 38.854 157.754 61.732 242.248 61.732 281.219 0 514.34-228.556 514.34-507.435 0-137.157-59.451-262.845-155.414-358.867zM509.66 930.26c-75.483 0-148.627-20.538-214.863-59.392l-13.692-9.128-160.036 43.417 43.476-155.472-11.469-15.974c-39.821-64.482-63.58-142.559-64.013-226.154v-0.12c0-230.839 189.762-420.599 422.882-420.599 111.996 0 217.088 43.476 297.134 123.465 79.989 79.989 128.030 185.139 128.030 299.417 0 230.839-194.267 420.541-427.446 420.541zM742.781 614.868c-12.013-6.816-40.533-20.581-69.314-33.876l-17.521-7.259c-11.41-4.565-20.597-6.846-29.725 6.846-6.846 11.41-32.007 41.135-38.854 50.321-9.128 6.788-15.974 9.070-27.444 2.223-75.424-36.571-123.465-66.297-173.67-150.85-13.751-22.82 13.692-20.538 36.571-68.579 4.565-9.128 2.282-15.974 0-22.82-2.34-6.846-29.725-68.579-38.912-93.74-11.41-25.162-20.538-22.82-29.667-22.82h-22.82c-9.186 0-22.937 2.282-34.348 15.974s-43.417 43.417-43.417 105.15c0 64.014 43.417 123.465 50.321 132.535 6.846 6.905 89.117 134.875 217.088 189.762 79.989 36.571 111.996 38.854 153.132 31.95 22.879-2.282 73.143-29.667 84.611-59.392 11.41-29.725 11.41-54.886 6.846-59.451-2.34-6.846-11.41-9.128-22.82-15.974z"></path>
</svg>
